<svg xmlns="http://www.w3.org/2000/svg" xmlns:xlink="http://www.w3.org/1999/xlink" viewBox="0 0 82.4281440716819 95.481" height="95.481" width="82.4281440716819" data-background-color="#ffffff" preserveAspectRatio="xMidYMid meet" id="tight-bounds"><g><svg viewBox="0 0 82.4281440716819 95.481" height="95.481" width="82.4281440716819"><g><svg viewBox="0 0 82.4281440716819 95.481" height="95.481" width="82.4281440716819"><g><svg viewBox="0 0 82.4281440716819 95.481" height="95.481" width="82.4281440716819"><g><svg viewBox="0 0 82.4281440716819 95.481" height="95.481" width="82.4281440716819"><g><svg viewBox="0 0 82.4281440716819 95.481" height="95.481" width="82.4281440716819"><g><svg xmlns="http://www.w3.org/2000/svg" xmlns:xlink="http://www.w3.org/1999/xlink" version="1.1" x="0" y="0" viewBox="9.63800048828125 3.246999979019165 80.7239990234375 93.50699615478516" enable-background="new 0 0 100 100" xml:space="preserve" height="95.481" width="82.4281440716819" class="icon-icon-0" data-fill-palette-color="accent" id="icon-0"><g fill="#49beb7" data-fill-palette-color="accent"><g fill="#49beb7" data-fill-palette-color="accent"><polygon points="36.703,11.011 9.638,26.636 9.638,38.757 36.703,23.131 63.767,38.757 63.767,26.636   " fill="#49beb7" data-fill-palette-color="accent"/></g><g fill="#49beb7" data-fill-palette-color="accent"><polygon points="63.298,89.092 36.233,73.467 36.233,61.348 63.298,76.973 90.362,61.348 90.362,73.467   " fill="#49beb7" data-fill-palette-color="accent"/></g><g fill="#49beb7" data-fill-palette-color="accent"><polygon points="9.638,42.012 36.703,26.386 47.198,32.446 20.134,48.072 20.134,79.324 9.638,73.264   " fill="#49beb7" data-fill-palette-color="accent"/></g><g fill="#49beb7" data-fill-palette-color="accent"><polygon points="77.083,18.872 50.018,3.247 39.522,9.307 66.586,24.932 66.586,56.184 77.083,50.124   " fill="#49beb7" data-fill-palette-color="accent"/></g><g fill="#49beb7" data-fill-palette-color="accent"><polygon points="23.01,81.127 23.011,49.876 33.507,43.816 33.507,75.068 60.571,90.693 50.075,96.754   " fill="#49beb7" data-fill-palette-color="accent"/></g><g fill="#49beb7" data-fill-palette-color="accent"><polygon points="90.362,58.092 90.362,26.84 79.866,20.78 79.866,52.031 52.802,67.658 63.298,73.719   " fill="#49beb7" data-fill-palette-color="accent"/></g></g></svg></g></svg></g></svg></g></svg></g></svg></g><g/></svg></g><defs/></svg>